<svg width="34" height="35" viewBox="0 0 34 35" fill="none" xmlns="http://www.w3.org/2000/svg">
<path d="M17.0068 17.4547C20.9188 17.4547 24.0901 14.2834 24.0901 10.3714C24.0901 6.45934 20.9188 3.28802 17.0068 3.28802C13.0948 3.28802 9.92346 6.45934 9.92346 10.3714C9.92346 14.2834 13.0948 17.4547 17.0068 17.4547Z" stroke="#1F41A9" stroke-width="2"/>
<path d="M24.0902 20.288H24.5888C25.6245 20.2883 26.6245 20.6668 27.4008 21.3523C28.1771 22.0379 28.6764 22.9833 28.8048 24.011L29.3588 28.4367C29.4086 28.8354 29.373 29.2401 29.2545 29.624C29.1359 30.0079 28.9371 30.3622 28.6711 30.6634C28.4052 30.9646 28.0782 31.2058 27.712 31.3709C27.3457 31.5361 26.9485 31.6214 26.5467 31.6214H7.46701C7.06521 31.6214 6.668 31.5361 6.30172 31.3709C5.93544 31.2058 5.60848 30.9646 5.34254 30.6634C5.07659 30.3622 4.87775 30.0079 4.7592 29.624C4.64065 29.2401 4.6051 28.8354 4.65492 28.4367L5.20742 24.011C5.33591 22.9828 5.8356 22.037 6.61252 21.3514C7.38944 20.6658 8.39008 20.2876 9.42626 20.288H9.92351" stroke="#1F41A9" stroke-width="2" stroke-linecap="round" stroke-linejoin="round"/>
</svg>
