<svg width="32" height="33" viewBox="0 0 32 33" fill="none" xmlns="http://www.w3.org/2000/svg">
<path d="M20.9915 2.45612C19.5914 2.45579 18.2108 2.78344 16.9601 3.41279C15.7094 4.04214 14.6236 4.9557 13.7896 6.08026C12.9555 7.20482 12.3965 8.5091 12.1573 9.8886C11.9181 11.2681 12.0054 12.6844 12.4121 14.0241L2.06348 24.3728V30.3501H8.04076L18.3894 20.0014C19.6226 20.3758 20.9221 20.4798 22.1991 20.3065C23.4762 20.1333 24.7009 19.6867 25.7898 18.9973C26.8787 18.3079 27.8061 17.3918 28.509 16.3116C29.2118 15.2313 29.6735 14.0122 29.8625 12.7374C30.0516 11.4625 29.9636 10.1619 29.6046 8.92417C29.2455 7.68642 28.6238 6.54062 27.7819 5.56486C26.94 4.5891 25.8976 3.80631 24.7258 3.26983C23.554 2.73336 22.2803 2.45582 20.9915 2.45612V2.45612ZM20.9915 18.3955C20.3057 18.3952 19.6236 18.2938 18.9672 18.0947L17.8246 17.748L16.9808 18.5918L13.8118 21.7607L12.438 20.388L11.0294 21.7966L12.4032 23.1704L10.8232 24.7504L9.4494 23.3766L8.04076 24.7852L9.41453 26.159L7.21589 28.3577H4.0559V25.1977L13.8208 15.4328L14.6656 14.589L14.3189 13.4463C13.8931 12.0427 13.9208 10.5405 14.3979 9.15343C14.8751 7.76638 15.7775 6.56513 16.9768 5.72053C18.1761 4.87594 19.6112 4.43103 21.0779 4.44907C22.5446 4.46712 23.9683 4.9472 25.1464 5.82104C26.3246 6.69488 27.1972 7.91798 27.6401 9.31634C28.083 10.7147 28.0737 12.2171 27.6135 13.6099C27.1533 15.0027 26.2656 16.2149 25.0768 17.0741C23.8879 17.9332 22.4584 18.3957 20.9915 18.3955V18.3955Z" fill="#1F41A9"/>
<path d="M21.9878 12.4183C23.0882 12.4183 23.9802 11.5262 23.9802 10.4258C23.9802 9.32545 23.0882 8.43341 21.9878 8.43341C20.8874 8.43341 19.9954 9.32545 19.9954 10.4258C19.9954 11.5262 20.8874 12.4183 21.9878 12.4183Z" fill="#1F41A9"/>
</svg>
